<mxfile host="app.diagrams.net" modified="2023-10-31T09:34:31.626Z" agent="Mozilla/5.0 (Windows NT 10.0; Win64; x64) AppleWebKit/537.36 (KHTML, like Gecko) Chrome/118.0.0.0 Safari/537.36" etag="xXG5_EKAFZvXT4iV2diS" version="22.0.8" type="github">
  <diagram name="Страница — 1" id="nu18rPKt8FRa73intnSN">
    <mxGraphModel dx="1593" dy="607" grid="1" gridSize="10" guides="1" tooltips="1" connect="1" arrows="1" fold="1" page="1" pageScale="1" pageWidth="827" pageHeight="1169" math="0" shadow="0">
      <root>
        <mxCell id="0" />
        <mxCell id="1" parent="0" />
        <mxCell id="c_uehI6yqxnHrj4KUwji-1" value="&lt;p style=&quot;margin:0px;margin-top:6px;text-align:center;&quot;&gt;&lt;b&gt;&quot;component&quot;&lt;/b&gt;&lt;/p&gt;&lt;p style=&quot;margin:0px;margin-top:6px;text-align:center;&quot;&gt;&lt;b&gt;SmartHomeServerCustom&lt;/b&gt;&lt;b style=&quot;background-color: initial;&quot;&gt;Layer&lt;/b&gt;&lt;/p&gt;&lt;hr&gt;&lt;p style=&quot;margin:0px;margin-left:8px;&quot;&gt;&lt;br&gt;&lt;/p&gt;" style="align=left;overflow=fill;html=1;dropTarget=0;whiteSpace=wrap;" parent="1" vertex="1">
          <mxGeometry x="110" y="60" width="630" height="360" as="geometry" />
        </mxCell>
        <mxCell id="c_uehI6yqxnHrj4KUwji-2" value="" style="shape=component;jettyWidth=8;jettyHeight=4;" parent="c_uehI6yqxnHrj4KUwji-1" vertex="1">
          <mxGeometry x="1" width="20" height="20" relative="1" as="geometry">
            <mxPoint x="-24" y="4" as="offset" />
          </mxGeometry>
        </mxCell>
        <mxCell id="c_uehI6yqxnHrj4KUwji-4" value="" style="ellipse;whiteSpace=wrap;html=1;align=center;aspect=fixed;fillColor=none;strokeColor=none;resizable=0;perimeter=centerPerimeter;rotatable=0;allowArrows=0;points=[];outlineConnect=1;" parent="1" vertex="1">
          <mxGeometry x="60" y="150" width="10" height="10" as="geometry" />
        </mxCell>
        <mxCell id="c_uehI6yqxnHrj4KUwji-19" style="edgeStyle=orthogonalEdgeStyle;rounded=0;orthogonalLoop=1;jettySize=auto;html=1;entryX=0;entryY=0.5;entryDx=0;entryDy=0;endArrow=none;endFill=0;exitX=1;exitY=0.5;exitDx=0;exitDy=0;" parent="1" source="c_uehI6yqxnHrj4KUwji-43" target="c_uehI6yqxnHrj4KUwji-18" edge="1">
          <mxGeometry relative="1" as="geometry">
            <mxPoint x="120" y="149.99999999999994" as="sourcePoint" />
          </mxGeometry>
        </mxCell>
        <mxCell id="c_uehI6yqxnHrj4KUwji-16" value="«component»&lt;br&gt;&lt;b&gt;UIController&lt;/b&gt;" style="html=1;dropTarget=0;whiteSpace=wrap;" parent="1" vertex="1">
          <mxGeometry x="360" y="110" width="150" height="60" as="geometry" />
        </mxCell>
        <mxCell id="c_uehI6yqxnHrj4KUwji-17" value="" style="shape=module;jettyWidth=8;jettyHeight=4;" parent="c_uehI6yqxnHrj4KUwji-16" vertex="1">
          <mxGeometry x="1" width="20" height="20" relative="1" as="geometry">
            <mxPoint x="-27" y="7" as="offset" />
          </mxGeometry>
        </mxCell>
        <mxCell id="c_uehI6yqxnHrj4KUwji-18" value="" style="fontStyle=0;labelPosition=right;verticalLabelPosition=middle;align=left;verticalAlign=middle;spacingLeft=2;imageHeight=20;imageWidth=20;imageAspect=0;" parent="1" vertex="1">
          <mxGeometry x="350" y="140" width="20" height="20" as="geometry" />
        </mxCell>
        <mxCell id="c_uehI6yqxnHrj4KUwji-28" style="edgeStyle=orthogonalEdgeStyle;rounded=0;orthogonalLoop=1;jettySize=auto;html=1;endArrow=open;endFill=0;dashed=1;dashPattern=12 12;exitX=0.25;exitY=0;exitDx=0;exitDy=0;" parent="1" source="c_uehI6yqxnHrj4KUwji-20" target="c_uehI6yqxnHrj4KUwji-16" edge="1">
          <mxGeometry relative="1" as="geometry">
            <Array as="points">
              <mxPoint x="397" y="220" />
              <mxPoint x="435" y="220" />
            </Array>
          </mxGeometry>
        </mxCell>
        <mxCell id="c_uehI6yqxnHrj4KUwji-46" style="edgeStyle=orthogonalEdgeStyle;rounded=0;orthogonalLoop=1;jettySize=auto;html=1;endArrow=open;endFill=0;dashed=1;dashPattern=12 12;" parent="1" source="c_uehI6yqxnHrj4KUwji-20" target="c_uehI6yqxnHrj4KUwji-44" edge="1">
          <mxGeometry relative="1" as="geometry" />
        </mxCell>
        <mxCell id="c_uehI6yqxnHrj4KUwji-20" value="«component»&lt;br&gt;&lt;b&gt;CentralServer&lt;/b&gt;" style="html=1;dropTarget=0;whiteSpace=wrap;" parent="1" vertex="1">
          <mxGeometry x="360" y="205" width="150" height="70" as="geometry" />
        </mxCell>
        <mxCell id="c_uehI6yqxnHrj4KUwji-21" value="" style="shape=module;jettyWidth=8;jettyHeight=4;" parent="c_uehI6yqxnHrj4KUwji-20" vertex="1">
          <mxGeometry x="1" width="20" height="20" relative="1" as="geometry">
            <mxPoint x="-27" y="7" as="offset" />
          </mxGeometry>
        </mxCell>
        <mxCell id="c_uehI6yqxnHrj4KUwji-32" style="edgeStyle=orthogonalEdgeStyle;rounded=0;orthogonalLoop=1;jettySize=auto;html=1;entryX=0;entryY=0.5;entryDx=0;entryDy=0;endArrow=none;endFill=0;" parent="1" source="c_uehI6yqxnHrj4KUwji-30" target="c_uehI6yqxnHrj4KUwji-33" edge="1">
          <mxGeometry relative="1" as="geometry">
            <mxPoint x="730" y="160" as="targetPoint" />
          </mxGeometry>
        </mxCell>
        <mxCell id="c_uehI6yqxnHrj4KUwji-30" value="" style="fontStyle=0;labelPosition=right;verticalLabelPosition=middle;align=left;verticalAlign=middle;spacingLeft=2;imageHeight=20;imageWidth=20;imageAspect=0;" parent="1" vertex="1">
          <mxGeometry x="500" y="240" width="20" height="20" as="geometry" />
        </mxCell>
        <mxCell id="c_uehI6yqxnHrj4KUwji-33" value="" style="html=1;rounded=0;" parent="1" vertex="1">
          <mxGeometry x="730" y="240" width="20" height="20" as="geometry" />
        </mxCell>
        <mxCell id="c_uehI6yqxnHrj4KUwji-34" value="IFunctional" style="endArrow=none;html=1;rounded=0;align=center;verticalAlign=top;endFill=0;labelBackgroundColor=none;endSize=2;" parent="1" source="c_uehI6yqxnHrj4KUwji-33" target="c_uehI6yqxnHrj4KUwji-35" edge="1">
          <mxGeometry x="0.7143" y="-10" relative="1" as="geometry">
            <mxPoint as="offset" />
          </mxGeometry>
        </mxCell>
        <mxCell id="c_uehI6yqxnHrj4KUwji-35" value="" style="shape=requiredInterface;html=1;fontSize=11;align=center;fillColor=none;points=[];aspect=fixed;resizable=0;verticalAlign=bottom;labelPosition=center;verticalLabelPosition=top;flipH=1;" parent="1" vertex="1">
          <mxGeometry x="800" y="245" width="5" height="10" as="geometry" />
        </mxCell>
        <mxCell id="c_uehI6yqxnHrj4KUwji-38" value="IScreenAPI" style="endArrow=none;html=1;rounded=0;align=center;verticalAlign=top;endFill=0;labelBackgroundColor=none;endSize=2;entryX=0.032;entryY=0.572;entryDx=0;entryDy=0;entryPerimeter=0;exitX=0;exitY=0.5;exitDx=0;exitDy=0;" parent="1" source="c_uehI6yqxnHrj4KUwji-43" target="c_uehI6yqxnHrj4KUwji-39" edge="1">
          <mxGeometry x="0.8706" y="9" relative="1" as="geometry">
            <mxPoint x="47.5" y="130" as="sourcePoint" />
            <mxPoint as="offset" />
          </mxGeometry>
        </mxCell>
        <mxCell id="c_uehI6yqxnHrj4KUwji-39" value="" style="ellipse;html=1;fontSize=11;align=center;fillColor=none;points=[];aspect=fixed;resizable=0;verticalAlign=bottom;labelPosition=center;verticalLabelPosition=top;flipH=1;" parent="1" vertex="1">
          <mxGeometry x="60" y="146" width="8" height="8" as="geometry" />
        </mxCell>
        <mxCell id="c_uehI6yqxnHrj4KUwji-43" value="" style="fontStyle=0;labelPosition=right;verticalLabelPosition=middle;align=left;verticalAlign=middle;spacingLeft=2;imageHeight=20;imageWidth=20;imageAspect=0;" parent="1" vertex="1">
          <mxGeometry x="100" y="140" width="20" height="20" as="geometry" />
        </mxCell>
        <mxCell id="c_uehI6yqxnHrj4KUwji-44" value="«component»&lt;br&gt;&lt;b&gt;BoardsController&lt;/b&gt;" style="html=1;dropTarget=0;whiteSpace=wrap;" parent="1" vertex="1">
          <mxGeometry x="360" y="320" width="150" height="70" as="geometry" />
        </mxCell>
        <mxCell id="c_uehI6yqxnHrj4KUwji-45" value="" style="shape=module;jettyWidth=8;jettyHeight=4;" parent="c_uehI6yqxnHrj4KUwji-44" vertex="1">
          <mxGeometry x="1" width="20" height="20" relative="1" as="geometry">
            <mxPoint x="-27" y="7" as="offset" />
          </mxGeometry>
        </mxCell>
        <mxCell id="c_uehI6yqxnHrj4KUwji-48" value="&lt;p style=&quot;margin:0px;margin-top:6px;text-align:center;&quot;&gt;&lt;b&gt;&quot;component&quot;&lt;/b&gt;&lt;/p&gt;&lt;p style=&quot;margin:0px;margin-top:6px;text-align:center;&quot;&gt;&lt;b&gt;SmartHomeCustomLayer&lt;/b&gt;&lt;/p&gt;&lt;hr&gt;&lt;p style=&quot;margin:0px;margin-left:8px;&quot;&gt;&lt;br&gt;&lt;/p&gt;" style="align=left;overflow=fill;html=1;dropTarget=0;whiteSpace=wrap;" parent="1" vertex="1">
          <mxGeometry x="90" y="650" width="630" height="380" as="geometry" />
        </mxCell>
        <mxCell id="c_uehI6yqxnHrj4KUwji-49" value="" style="shape=component;jettyWidth=8;jettyHeight=4;" parent="c_uehI6yqxnHrj4KUwji-48" vertex="1">
          <mxGeometry x="1" width="20" height="20" relative="1" as="geometry">
            <mxPoint x="-24" y="4" as="offset" />
          </mxGeometry>
        </mxCell>
        <mxCell id="c_uehI6yqxnHrj4KUwji-50" value="" style="ellipse;whiteSpace=wrap;html=1;align=center;aspect=fixed;fillColor=none;strokeColor=none;resizable=0;perimeter=centerPerimeter;rotatable=0;allowArrows=0;points=[];outlineConnect=1;" parent="1" vertex="1">
          <mxGeometry x="40" y="740" width="10" height="10" as="geometry" />
        </mxCell>
        <mxCell id="c_uehI6yqxnHrj4KUwji-51" style="edgeStyle=orthogonalEdgeStyle;rounded=0;orthogonalLoop=1;jettySize=auto;html=1;entryX=0;entryY=0.5;entryDx=0;entryDy=0;endArrow=none;endFill=0;exitX=1;exitY=0.5;exitDx=0;exitDy=0;" parent="1" source="c_uehI6yqxnHrj4KUwji-71" target="c_uehI6yqxnHrj4KUwji-54" edge="1">
          <mxGeometry relative="1" as="geometry">
            <mxPoint x="100" y="740" as="sourcePoint" />
          </mxGeometry>
        </mxCell>
        <mxCell id="c_uehI6yqxnHrj4KUwji-52" value="«component»&lt;br&gt;&lt;b&gt;UIController&lt;/b&gt;" style="html=1;dropTarget=0;whiteSpace=wrap;" parent="1" vertex="1">
          <mxGeometry x="160" y="710" width="150" height="70" as="geometry" />
        </mxCell>
        <mxCell id="c_uehI6yqxnHrj4KUwji-53" value="" style="shape=module;jettyWidth=8;jettyHeight=4;" parent="c_uehI6yqxnHrj4KUwji-52" vertex="1">
          <mxGeometry x="1" width="20" height="20" relative="1" as="geometry">
            <mxPoint x="-27" y="7" as="offset" />
          </mxGeometry>
        </mxCell>
        <mxCell id="c_uehI6yqxnHrj4KUwji-54" value="" style="fontStyle=0;labelPosition=right;verticalLabelPosition=middle;align=left;verticalAlign=middle;spacingLeft=2;imageHeight=20;imageWidth=20;imageAspect=0;" parent="1" vertex="1">
          <mxGeometry x="150" y="730" width="20" height="20" as="geometry" />
        </mxCell>
        <mxCell id="c_uehI6yqxnHrj4KUwji-55" style="edgeStyle=orthogonalEdgeStyle;rounded=0;orthogonalLoop=1;jettySize=auto;html=1;entryX=1;entryY=0.5;entryDx=0;entryDy=0;endArrow=open;endFill=0;dashed=1;dashPattern=12 12;" parent="1" source="c_uehI6yqxnHrj4KUwji-57" target="c_uehI6yqxnHrj4KUwji-52" edge="1">
          <mxGeometry relative="1" as="geometry" />
        </mxCell>
        <mxCell id="c_uehI6yqxnHrj4KUwji-56" style="edgeStyle=orthogonalEdgeStyle;rounded=0;orthogonalLoop=1;jettySize=auto;html=1;endArrow=open;endFill=0;dashed=1;dashPattern=12 12;" parent="1" source="c_uehI6yqxnHrj4KUwji-57" target="c_uehI6yqxnHrj4KUwji-72" edge="1">
          <mxGeometry relative="1" as="geometry" />
        </mxCell>
        <mxCell id="c_uehI6yqxnHrj4KUwji-57" value="«component»&lt;br&gt;&lt;b&gt;CentralServer&lt;/b&gt;" style="html=1;dropTarget=0;whiteSpace=wrap;" parent="1" vertex="1">
          <mxGeometry x="450" y="710" width="150" height="70" as="geometry" />
        </mxCell>
        <mxCell id="c_uehI6yqxnHrj4KUwji-58" value="" style="shape=module;jettyWidth=8;jettyHeight=4;" parent="c_uehI6yqxnHrj4KUwji-57" vertex="1">
          <mxGeometry x="1" width="20" height="20" relative="1" as="geometry">
            <mxPoint x="-27" y="7" as="offset" />
          </mxGeometry>
        </mxCell>
        <mxCell id="c_uehI6yqxnHrj4KUwji-59" value="" style="rounded=0;orthogonalLoop=1;jettySize=auto;html=1;endArrow=halfCircle;endFill=0;endSize=6;strokeWidth=1;sketch=0;exitX=0.583;exitY=-0.002;exitDx=0;exitDy=0;exitPerimeter=0;" parent="1" source="c_uehI6yqxnHrj4KUwji-62" target="c_uehI6yqxnHrj4KUwji-61" edge="1">
          <mxGeometry relative="1" as="geometry">
            <mxPoint x="480" y="805" as="sourcePoint" />
          </mxGeometry>
        </mxCell>
        <mxCell id="c_uehI6yqxnHrj4KUwji-60" value="IPlugin" style="rounded=0;orthogonalLoop=1;jettySize=auto;html=1;endArrow=oval;endFill=0;sketch=0;sourcePerimeterSpacing=0;targetPerimeterSpacing=0;endSize=10;" parent="1" source="c_uehI6yqxnHrj4KUwji-57" target="c_uehI6yqxnHrj4KUwji-61" edge="1">
          <mxGeometry x="0.0953" y="13" relative="1" as="geometry">
            <mxPoint x="440" y="805" as="sourcePoint" />
            <mxPoint as="offset" />
          </mxGeometry>
        </mxCell>
        <mxCell id="c_uehI6yqxnHrj4KUwji-61" value="" style="ellipse;whiteSpace=wrap;html=1;align=center;aspect=fixed;fillColor=none;strokeColor=none;resizable=0;perimeter=centerPerimeter;rotatable=0;allowArrows=0;points=[];outlineConnect=1;" parent="1" vertex="1">
          <mxGeometry x="370" y="790" width="10" height="10" as="geometry" />
        </mxCell>
        <mxCell id="c_uehI6yqxnHrj4KUwji-62" value="«component»&lt;br&gt;&lt;b&gt;VendorDevice&lt;/b&gt;" style="html=1;dropTarget=0;whiteSpace=wrap;" parent="1" vertex="1">
          <mxGeometry x="160" y="820" width="150" height="80" as="geometry" />
        </mxCell>
        <mxCell id="c_uehI6yqxnHrj4KUwji-63" value="" style="shape=module;jettyWidth=8;jettyHeight=4;" parent="c_uehI6yqxnHrj4KUwji-62" vertex="1">
          <mxGeometry x="1" width="20" height="20" relative="1" as="geometry">
            <mxPoint x="-27" y="7" as="offset" />
          </mxGeometry>
        </mxCell>
        <mxCell id="c_uehI6yqxnHrj4KUwji-64" style="edgeStyle=orthogonalEdgeStyle;rounded=0;orthogonalLoop=1;jettySize=auto;html=1;entryX=0;entryY=0.5;entryDx=0;entryDy=0;endArrow=none;endFill=0;" parent="1" source="c_uehI6yqxnHrj4KUwji-65" target="c_uehI6yqxnHrj4KUwji-66" edge="1">
          <mxGeometry relative="1" as="geometry">
            <mxPoint x="710" y="750" as="targetPoint" />
          </mxGeometry>
        </mxCell>
        <mxCell id="c_uehI6yqxnHrj4KUwji-65" value="" style="fontStyle=0;labelPosition=right;verticalLabelPosition=middle;align=left;verticalAlign=middle;spacingLeft=2;imageHeight=20;imageWidth=20;imageAspect=0;" parent="1" vertex="1">
          <mxGeometry x="590" y="740" width="20" height="20" as="geometry" />
        </mxCell>
        <mxCell id="c_uehI6yqxnHrj4KUwji-66" value="" style="html=1;rounded=0;" parent="1" vertex="1">
          <mxGeometry x="710" y="740" width="20" height="20" as="geometry" />
        </mxCell>
        <mxCell id="c_uehI6yqxnHrj4KUwji-67" value="IFunctional" style="endArrow=none;html=1;rounded=0;align=center;verticalAlign=top;endFill=0;labelBackgroundColor=none;endSize=2;" parent="1" source="c_uehI6yqxnHrj4KUwji-66" target="c_uehI6yqxnHrj4KUwji-68" edge="1">
          <mxGeometry x="0.7143" y="-10" relative="1" as="geometry">
            <mxPoint as="offset" />
          </mxGeometry>
        </mxCell>
        <mxCell id="c_uehI6yqxnHrj4KUwji-68" value="" style="shape=requiredInterface;html=1;fontSize=11;align=center;fillColor=none;points=[];aspect=fixed;resizable=0;verticalAlign=bottom;labelPosition=center;verticalLabelPosition=top;flipH=1;" parent="1" vertex="1">
          <mxGeometry x="765" y="745" width="5" height="10" as="geometry" />
        </mxCell>
        <mxCell id="c_uehI6yqxnHrj4KUwji-69" value="IScreenAPI" style="endArrow=none;html=1;rounded=0;align=center;verticalAlign=top;endFill=0;labelBackgroundColor=none;endSize=2;entryX=0.032;entryY=0.572;entryDx=0;entryDy=0;entryPerimeter=0;exitX=0;exitY=0.5;exitDx=0;exitDy=0;" parent="1" source="c_uehI6yqxnHrj4KUwji-71" target="c_uehI6yqxnHrj4KUwji-70" edge="1">
          <mxGeometry x="0.8706" y="9" relative="1" as="geometry">
            <mxPoint x="27.5" y="720" as="sourcePoint" />
            <mxPoint as="offset" />
          </mxGeometry>
        </mxCell>
        <mxCell id="c_uehI6yqxnHrj4KUwji-70" value="" style="ellipse;html=1;fontSize=11;align=center;fillColor=none;points=[];aspect=fixed;resizable=0;verticalAlign=bottom;labelPosition=center;verticalLabelPosition=top;flipH=1;" parent="1" vertex="1">
          <mxGeometry x="40" y="736" width="8" height="8" as="geometry" />
        </mxCell>
        <mxCell id="c_uehI6yqxnHrj4KUwji-71" value="" style="fontStyle=0;labelPosition=right;verticalLabelPosition=middle;align=left;verticalAlign=middle;spacingLeft=2;imageHeight=20;imageWidth=20;imageAspect=0;" parent="1" vertex="1">
          <mxGeometry x="80" y="730" width="20" height="20" as="geometry" />
        </mxCell>
        <mxCell id="c_uehI6yqxnHrj4KUwji-72" value="«component»&lt;br&gt;&lt;b&gt;BoardsController&lt;/b&gt;" style="html=1;dropTarget=0;whiteSpace=wrap;" parent="1" vertex="1">
          <mxGeometry x="450" y="820" width="150" height="80" as="geometry" />
        </mxCell>
        <mxCell id="c_uehI6yqxnHrj4KUwji-73" value="" style="shape=module;jettyWidth=8;jettyHeight=4;" parent="c_uehI6yqxnHrj4KUwji-72" vertex="1">
          <mxGeometry x="1" width="20" height="20" relative="1" as="geometry">
            <mxPoint x="-27" y="7" as="offset" />
          </mxGeometry>
        </mxCell>
        <mxCell id="c_uehI6yqxnHrj4KUwji-77" style="edgeStyle=orthogonalEdgeStyle;rounded=0;orthogonalLoop=1;jettySize=auto;html=1;endArrow=none;endFill=0;" parent="1" source="c_uehI6yqxnHrj4KUwji-75" target="c_uehI6yqxnHrj4KUwji-76" edge="1">
          <mxGeometry relative="1" as="geometry" />
        </mxCell>
        <mxCell id="c_uehI6yqxnHrj4KUwji-75" value="" style="fontStyle=0;labelPosition=right;verticalLabelPosition=middle;align=left;verticalAlign=middle;spacingLeft=2;imageHeight=20;imageWidth=20;imageAspect=0;" parent="1" vertex="1">
          <mxGeometry x="350" y="230" width="20" height="20" as="geometry" />
        </mxCell>
        <mxCell id="c_uehI6yqxnHrj4KUwji-76" value="" style="fontStyle=0;labelPosition=right;verticalLabelPosition=middle;align=left;verticalAlign=middle;spacingLeft=2;imageHeight=20;imageWidth=20;imageAspect=0;" parent="1" vertex="1">
          <mxGeometry x="100" y="230" width="20" height="20" as="geometry" />
        </mxCell>
        <mxCell id="c_uehI6yqxnHrj4KUwji-78" value="" style="ellipse;whiteSpace=wrap;html=1;align=center;aspect=fixed;fillColor=none;strokeColor=none;resizable=0;perimeter=centerPerimeter;rotatable=0;allowArrows=0;points=[];outlineConnect=1;" parent="1" vertex="1">
          <mxGeometry x="48" y="244" width="10" height="10" as="geometry" />
        </mxCell>
        <mxCell id="c_uehI6yqxnHrj4KUwji-79" value="IPlugin" style="endArrow=none;html=1;rounded=0;align=center;verticalAlign=top;endFill=0;labelBackgroundColor=none;endSize=2;entryX=0.032;entryY=0.572;entryDx=0;entryDy=0;entryPerimeter=0;exitX=0;exitY=0.5;exitDx=0;exitDy=0;" parent="1" source="c_uehI6yqxnHrj4KUwji-76" target="c_uehI6yqxnHrj4KUwji-80" edge="1">
          <mxGeometry x="0.8706" y="9" relative="1" as="geometry">
            <mxPoint x="90" y="240" as="sourcePoint" />
            <mxPoint as="offset" />
          </mxGeometry>
        </mxCell>
        <mxCell id="c_uehI6yqxnHrj4KUwji-80" value="" style="ellipse;html=1;fontSize=11;align=center;fillColor=none;points=[];aspect=fixed;resizable=0;verticalAlign=bottom;labelPosition=center;verticalLabelPosition=top;flipH=1;" parent="1" vertex="1">
          <mxGeometry x="60" y="236" width="8" height="8" as="geometry" />
        </mxCell>
        <mxCell id="c_uehI6yqxnHrj4KUwji-87" style="edgeStyle=orthogonalEdgeStyle;rounded=0;orthogonalLoop=1;jettySize=auto;html=1;endArrow=none;endFill=0;" parent="1" source="c_uehI6yqxnHrj4KUwji-88" target="c_uehI6yqxnHrj4KUwji-89" edge="1">
          <mxGeometry relative="1" as="geometry" />
        </mxCell>
        <mxCell id="c_uehI6yqxnHrj4KUwji-88" value="" style="fontStyle=0;labelPosition=right;verticalLabelPosition=middle;align=left;verticalAlign=middle;spacingLeft=2;imageHeight=20;imageWidth=20;imageAspect=0;" parent="1" vertex="1">
          <mxGeometry x="350" y="343" width="20" height="20" as="geometry" />
        </mxCell>
        <mxCell id="c_uehI6yqxnHrj4KUwji-89" value="" style="fontStyle=0;labelPosition=right;verticalLabelPosition=middle;align=left;verticalAlign=middle;spacingLeft=2;imageHeight=20;imageWidth=20;imageAspect=0;" parent="1" vertex="1">
          <mxGeometry x="100" y="343" width="20" height="20" as="geometry" />
        </mxCell>
        <mxCell id="c_uehI6yqxnHrj4KUwji-90" value="" style="ellipse;whiteSpace=wrap;html=1;align=center;aspect=fixed;fillColor=none;strokeColor=none;resizable=0;perimeter=centerPerimeter;rotatable=0;allowArrows=0;points=[];outlineConnect=1;" parent="1" vertex="1">
          <mxGeometry x="48" y="357" width="10" height="10" as="geometry" />
        </mxCell>
        <mxCell id="c_uehI6yqxnHrj4KUwji-91" value="IPhysicalCommand" style="endArrow=none;html=1;rounded=0;align=center;verticalAlign=top;endFill=0;labelBackgroundColor=none;endSize=2;entryX=0.032;entryY=0.572;entryDx=0;entryDy=0;entryPerimeter=0;exitX=0;exitY=0.5;exitDx=0;exitDy=0;" parent="1" source="c_uehI6yqxnHrj4KUwji-89" target="c_uehI6yqxnHrj4KUwji-92" edge="1">
          <mxGeometry x="1" y="19" relative="1" as="geometry">
            <mxPoint x="90" y="353" as="sourcePoint" />
            <mxPoint x="-18" y="-13" as="offset" />
          </mxGeometry>
        </mxCell>
        <mxCell id="c_uehI6yqxnHrj4KUwji-92" value="" style="ellipse;html=1;fontSize=11;align=center;fillColor=none;points=[];aspect=fixed;resizable=0;verticalAlign=bottom;labelPosition=center;verticalLabelPosition=top;flipH=1;" parent="1" vertex="1">
          <mxGeometry x="60" y="349" width="8" height="8" as="geometry" />
        </mxCell>
        <mxCell id="c_uehI6yqxnHrj4KUwji-94" value="«component»&lt;br&gt;&lt;b&gt;PhysicalDevice&lt;/b&gt;" style="html=1;dropTarget=0;whiteSpace=wrap;" parent="1" vertex="1">
          <mxGeometry x="450" y="950" width="154" height="70" as="geometry" />
        </mxCell>
        <mxCell id="c_uehI6yqxnHrj4KUwji-95" value="" style="shape=module;jettyWidth=8;jettyHeight=4;" parent="c_uehI6yqxnHrj4KUwji-94" vertex="1">
          <mxGeometry x="1" width="20" height="20" relative="1" as="geometry">
            <mxPoint x="-27" y="7" as="offset" />
          </mxGeometry>
        </mxCell>
        <mxCell id="c_uehI6yqxnHrj4KUwji-101" value="IPhysicalCommand" style="rounded=0;orthogonalLoop=1;jettySize=auto;html=1;endArrow=halfCircle;endFill=0;endSize=6;strokeWidth=1;sketch=0;exitX=0.5;exitY=1;exitDx=0;exitDy=0;" parent="1" edge="1">
          <mxGeometry x="1" y="60" relative="1" as="geometry">
            <mxPoint x="508" y="900" as="sourcePoint" />
            <mxPoint x="510" y="930" as="targetPoint" />
            <mxPoint y="4" as="offset" />
          </mxGeometry>
        </mxCell>
        <mxCell id="c_uehI6yqxnHrj4KUwji-102" value="" style="rounded=0;orthogonalLoop=1;jettySize=auto;html=1;endArrow=oval;endFill=0;sketch=0;sourcePerimeterSpacing=0;targetPerimeterSpacing=0;endSize=10;exitX=0.39;exitY=-0.012;exitDx=0;exitDy=0;exitPerimeter=0;" parent="1" source="c_uehI6yqxnHrj4KUwji-94" edge="1">
          <mxGeometry relative="1" as="geometry">
            <mxPoint x="28" y="1035" as="sourcePoint" />
            <mxPoint x="510" y="930" as="targetPoint" />
          </mxGeometry>
        </mxCell>
        <mxCell id="c_uehI6yqxnHrj4KUwji-103" value="" style="ellipse;whiteSpace=wrap;html=1;align=center;aspect=fixed;fillColor=none;strokeColor=none;resizable=0;perimeter=centerPerimeter;rotatable=0;allowArrows=0;points=[];outlineConnect=1;" parent="1" vertex="1">
          <mxGeometry x="80" y="1070" width="10" height="10" as="geometry" />
        </mxCell>
        <mxCell id="Xjdg4aVOlzYSAY4IZTlS-1" value="&lt;p style=&quot;margin:0px;margin-top:6px;text-align:center;&quot;&gt;&lt;b&gt;&quot;component&quot;&lt;/b&gt;&lt;/p&gt;&lt;p style=&quot;margin:0px;margin-top:6px;text-align:center;&quot;&gt;&lt;b&gt;SmartHomeServerCustom&lt;/b&gt;&lt;b style=&quot;background-color: initial;&quot;&gt;Layer&lt;/b&gt;&lt;/p&gt;&lt;hr&gt;&lt;p style=&quot;margin:0px;margin-left:8px;&quot;&gt;&lt;br&gt;&lt;/p&gt;" style="align=left;overflow=fill;html=1;dropTarget=0;whiteSpace=wrap;" vertex="1" parent="1">
          <mxGeometry x="962" y="60" width="630" height="360" as="geometry" />
        </mxCell>
        <mxCell id="Xjdg4aVOlzYSAY4IZTlS-2" value="" style="shape=component;jettyWidth=8;jettyHeight=4;" vertex="1" parent="Xjdg4aVOlzYSAY4IZTlS-1">
          <mxGeometry x="1" width="20" height="20" relative="1" as="geometry">
            <mxPoint x="-24" y="4" as="offset" />
          </mxGeometry>
        </mxCell>
        <mxCell id="Xjdg4aVOlzYSAY4IZTlS-3" value="" style="ellipse;whiteSpace=wrap;html=1;align=center;aspect=fixed;fillColor=none;strokeColor=none;resizable=0;perimeter=centerPerimeter;rotatable=0;allowArrows=0;points=[];outlineConnect=1;" vertex="1" parent="1">
          <mxGeometry x="912" y="150" width="10" height="10" as="geometry" />
        </mxCell>
        <mxCell id="Xjdg4aVOlzYSAY4IZTlS-4" style="edgeStyle=orthogonalEdgeStyle;rounded=0;orthogonalLoop=1;jettySize=auto;html=1;entryX=0;entryY=0.5;entryDx=0;entryDy=0;endArrow=none;endFill=0;exitX=1;exitY=0.5;exitDx=0;exitDy=0;" edge="1" parent="1" source="Xjdg4aVOlzYSAY4IZTlS-19" target="Xjdg4aVOlzYSAY4IZTlS-7">
          <mxGeometry relative="1" as="geometry">
            <mxPoint x="972" y="149.99999999999994" as="sourcePoint" />
          </mxGeometry>
        </mxCell>
        <mxCell id="Xjdg4aVOlzYSAY4IZTlS-5" value="«component»&lt;br&gt;&lt;b&gt;UIProvider&lt;/b&gt;" style="html=1;dropTarget=0;whiteSpace=wrap;" vertex="1" parent="1">
          <mxGeometry x="1212" y="110" width="150" height="60" as="geometry" />
        </mxCell>
        <mxCell id="Xjdg4aVOlzYSAY4IZTlS-6" value="" style="shape=module;jettyWidth=8;jettyHeight=4;" vertex="1" parent="Xjdg4aVOlzYSAY4IZTlS-5">
          <mxGeometry x="1" width="20" height="20" relative="1" as="geometry">
            <mxPoint x="-27" y="7" as="offset" />
          </mxGeometry>
        </mxCell>
        <mxCell id="Xjdg4aVOlzYSAY4IZTlS-7" value="" style="fontStyle=0;labelPosition=right;verticalLabelPosition=middle;align=left;verticalAlign=middle;spacingLeft=2;imageHeight=20;imageWidth=20;imageAspect=0;" vertex="1" parent="1">
          <mxGeometry x="1202" y="140" width="20" height="20" as="geometry" />
        </mxCell>
        <mxCell id="Xjdg4aVOlzYSAY4IZTlS-8" style="edgeStyle=orthogonalEdgeStyle;rounded=0;orthogonalLoop=1;jettySize=auto;html=1;endArrow=open;endFill=0;dashed=1;dashPattern=12 12;exitX=0.25;exitY=0;exitDx=0;exitDy=0;" edge="1" parent="1" source="Xjdg4aVOlzYSAY4IZTlS-10" target="Xjdg4aVOlzYSAY4IZTlS-5">
          <mxGeometry relative="1" as="geometry">
            <Array as="points">
              <mxPoint x="1249" y="220" />
              <mxPoint x="1287" y="220" />
            </Array>
          </mxGeometry>
        </mxCell>
        <mxCell id="Xjdg4aVOlzYSAY4IZTlS-9" style="edgeStyle=orthogonalEdgeStyle;rounded=0;orthogonalLoop=1;jettySize=auto;html=1;endArrow=open;endFill=0;dashed=1;dashPattern=12 12;" edge="1" parent="1" source="Xjdg4aVOlzYSAY4IZTlS-10" target="Xjdg4aVOlzYSAY4IZTlS-20">
          <mxGeometry relative="1" as="geometry" />
        </mxCell>
        <mxCell id="Xjdg4aVOlzYSAY4IZTlS-10" value="«component»&lt;br&gt;&lt;b&gt;CentralServer&lt;/b&gt;" style="html=1;dropTarget=0;whiteSpace=wrap;" vertex="1" parent="1">
          <mxGeometry x="1212" y="205" width="150" height="70" as="geometry" />
        </mxCell>
        <mxCell id="Xjdg4aVOlzYSAY4IZTlS-11" value="" style="shape=module;jettyWidth=8;jettyHeight=4;" vertex="1" parent="Xjdg4aVOlzYSAY4IZTlS-10">
          <mxGeometry x="1" width="20" height="20" relative="1" as="geometry">
            <mxPoint x="-27" y="7" as="offset" />
          </mxGeometry>
        </mxCell>
        <mxCell id="Xjdg4aVOlzYSAY4IZTlS-12" style="edgeStyle=orthogonalEdgeStyle;rounded=0;orthogonalLoop=1;jettySize=auto;html=1;entryX=0;entryY=0.5;entryDx=0;entryDy=0;endArrow=none;endFill=0;" edge="1" parent="1" source="Xjdg4aVOlzYSAY4IZTlS-13" target="Xjdg4aVOlzYSAY4IZTlS-14">
          <mxGeometry relative="1" as="geometry">
            <mxPoint x="1582" y="160" as="targetPoint" />
          </mxGeometry>
        </mxCell>
        <mxCell id="Xjdg4aVOlzYSAY4IZTlS-13" value="" style="fontStyle=0;labelPosition=right;verticalLabelPosition=middle;align=left;verticalAlign=middle;spacingLeft=2;imageHeight=20;imageWidth=20;imageAspect=0;" vertex="1" parent="1">
          <mxGeometry x="1352" y="240" width="20" height="20" as="geometry" />
        </mxCell>
        <mxCell id="Xjdg4aVOlzYSAY4IZTlS-14" value="" style="html=1;rounded=0;" vertex="1" parent="1">
          <mxGeometry x="1582" y="240" width="20" height="20" as="geometry" />
        </mxCell>
        <mxCell id="Xjdg4aVOlzYSAY4IZTlS-15" value="IFunctional" style="endArrow=none;html=1;rounded=0;align=center;verticalAlign=top;endFill=0;labelBackgroundColor=none;endSize=2;" edge="1" parent="1" source="Xjdg4aVOlzYSAY4IZTlS-14" target="Xjdg4aVOlzYSAY4IZTlS-16">
          <mxGeometry x="0.7143" y="-10" relative="1" as="geometry">
            <mxPoint as="offset" />
          </mxGeometry>
        </mxCell>
        <mxCell id="Xjdg4aVOlzYSAY4IZTlS-16" value="" style="shape=requiredInterface;html=1;fontSize=11;align=center;fillColor=none;points=[];aspect=fixed;resizable=0;verticalAlign=bottom;labelPosition=center;verticalLabelPosition=top;flipH=1;" vertex="1" parent="1">
          <mxGeometry x="1652" y="245" width="5" height="10" as="geometry" />
        </mxCell>
        <mxCell id="Xjdg4aVOlzYSAY4IZTlS-17" value="IScreenAPI" style="endArrow=none;html=1;rounded=0;align=center;verticalAlign=top;endFill=0;labelBackgroundColor=none;endSize=2;entryX=0.032;entryY=0.572;entryDx=0;entryDy=0;entryPerimeter=0;exitX=0;exitY=0.5;exitDx=0;exitDy=0;" edge="1" parent="1" source="Xjdg4aVOlzYSAY4IZTlS-19" target="Xjdg4aVOlzYSAY4IZTlS-18">
          <mxGeometry x="0.8706" y="9" relative="1" as="geometry">
            <mxPoint x="899.5" y="130" as="sourcePoint" />
            <mxPoint as="offset" />
          </mxGeometry>
        </mxCell>
        <mxCell id="Xjdg4aVOlzYSAY4IZTlS-18" value="" style="ellipse;html=1;fontSize=11;align=center;fillColor=none;points=[];aspect=fixed;resizable=0;verticalAlign=bottom;labelPosition=center;verticalLabelPosition=top;flipH=1;" vertex="1" parent="1">
          <mxGeometry x="912" y="146" width="8" height="8" as="geometry" />
        </mxCell>
        <mxCell id="Xjdg4aVOlzYSAY4IZTlS-19" value="" style="fontStyle=0;labelPosition=right;verticalLabelPosition=middle;align=left;verticalAlign=middle;spacingLeft=2;imageHeight=20;imageWidth=20;imageAspect=0;" vertex="1" parent="1">
          <mxGeometry x="952" y="140" width="20" height="20" as="geometry" />
        </mxCell>
        <mxCell id="Xjdg4aVOlzYSAY4IZTlS-20" value="«component»&lt;br&gt;&lt;b&gt;BoardsController&lt;/b&gt;" style="html=1;dropTarget=0;whiteSpace=wrap;" vertex="1" parent="1">
          <mxGeometry x="1212" y="320" width="150" height="70" as="geometry" />
        </mxCell>
        <mxCell id="Xjdg4aVOlzYSAY4IZTlS-21" value="" style="shape=module;jettyWidth=8;jettyHeight=4;" vertex="1" parent="Xjdg4aVOlzYSAY4IZTlS-20">
          <mxGeometry x="1" width="20" height="20" relative="1" as="geometry">
            <mxPoint x="-27" y="7" as="offset" />
          </mxGeometry>
        </mxCell>
        <mxCell id="Xjdg4aVOlzYSAY4IZTlS-22" style="edgeStyle=orthogonalEdgeStyle;rounded=0;orthogonalLoop=1;jettySize=auto;html=1;endArrow=none;endFill=0;" edge="1" parent="1" source="Xjdg4aVOlzYSAY4IZTlS-23" target="Xjdg4aVOlzYSAY4IZTlS-24">
          <mxGeometry relative="1" as="geometry" />
        </mxCell>
        <mxCell id="Xjdg4aVOlzYSAY4IZTlS-23" value="" style="fontStyle=0;labelPosition=right;verticalLabelPosition=middle;align=left;verticalAlign=middle;spacingLeft=2;imageHeight=20;imageWidth=20;imageAspect=0;" vertex="1" parent="1">
          <mxGeometry x="1202" y="230" width="20" height="20" as="geometry" />
        </mxCell>
        <mxCell id="Xjdg4aVOlzYSAY4IZTlS-24" value="" style="fontStyle=0;labelPosition=right;verticalLabelPosition=middle;align=left;verticalAlign=middle;spacingLeft=2;imageHeight=20;imageWidth=20;imageAspect=0;" vertex="1" parent="1">
          <mxGeometry x="952" y="230" width="20" height="20" as="geometry" />
        </mxCell>
        <mxCell id="Xjdg4aVOlzYSAY4IZTlS-25" value="" style="ellipse;whiteSpace=wrap;html=1;align=center;aspect=fixed;fillColor=none;strokeColor=none;resizable=0;perimeter=centerPerimeter;rotatable=0;allowArrows=0;points=[];outlineConnect=1;" vertex="1" parent="1">
          <mxGeometry x="900" y="244" width="10" height="10" as="geometry" />
        </mxCell>
        <mxCell id="Xjdg4aVOlzYSAY4IZTlS-26" value="IPlugin" style="endArrow=none;html=1;rounded=0;align=center;verticalAlign=top;endFill=0;labelBackgroundColor=none;endSize=2;entryX=0.032;entryY=0.572;entryDx=0;entryDy=0;entryPerimeter=0;exitX=0;exitY=0.5;exitDx=0;exitDy=0;" edge="1" parent="1" source="Xjdg4aVOlzYSAY4IZTlS-24" target="Xjdg4aVOlzYSAY4IZTlS-27">
          <mxGeometry x="0.8706" y="9" relative="1" as="geometry">
            <mxPoint x="942" y="240" as="sourcePoint" />
            <mxPoint as="offset" />
          </mxGeometry>
        </mxCell>
        <mxCell id="Xjdg4aVOlzYSAY4IZTlS-27" value="" style="ellipse;html=1;fontSize=11;align=center;fillColor=none;points=[];aspect=fixed;resizable=0;verticalAlign=bottom;labelPosition=center;verticalLabelPosition=top;flipH=1;" vertex="1" parent="1">
          <mxGeometry x="912" y="236" width="8" height="8" as="geometry" />
        </mxCell>
        <mxCell id="Xjdg4aVOlzYSAY4IZTlS-28" style="edgeStyle=orthogonalEdgeStyle;rounded=0;orthogonalLoop=1;jettySize=auto;html=1;endArrow=none;endFill=0;" edge="1" parent="1" source="Xjdg4aVOlzYSAY4IZTlS-29" target="Xjdg4aVOlzYSAY4IZTlS-30">
          <mxGeometry relative="1" as="geometry" />
        </mxCell>
        <mxCell id="Xjdg4aVOlzYSAY4IZTlS-29" value="" style="fontStyle=0;labelPosition=right;verticalLabelPosition=middle;align=left;verticalAlign=middle;spacingLeft=2;imageHeight=20;imageWidth=20;imageAspect=0;" vertex="1" parent="1">
          <mxGeometry x="1202" y="343" width="20" height="20" as="geometry" />
        </mxCell>
        <mxCell id="Xjdg4aVOlzYSAY4IZTlS-30" value="" style="fontStyle=0;labelPosition=right;verticalLabelPosition=middle;align=left;verticalAlign=middle;spacingLeft=2;imageHeight=20;imageWidth=20;imageAspect=0;" vertex="1" parent="1">
          <mxGeometry x="952" y="343" width="20" height="20" as="geometry" />
        </mxCell>
        <mxCell id="Xjdg4aVOlzYSAY4IZTlS-31" value="" style="ellipse;whiteSpace=wrap;html=1;align=center;aspect=fixed;fillColor=none;strokeColor=none;resizable=0;perimeter=centerPerimeter;rotatable=0;allowArrows=0;points=[];outlineConnect=1;" vertex="1" parent="1">
          <mxGeometry x="900" y="357" width="10" height="10" as="geometry" />
        </mxCell>
        <mxCell id="Xjdg4aVOlzYSAY4IZTlS-32" value="IPhysicalCommand" style="endArrow=none;html=1;rounded=0;align=center;verticalAlign=top;endFill=0;labelBackgroundColor=none;endSize=2;entryX=0.032;entryY=0.572;entryDx=0;entryDy=0;entryPerimeter=0;exitX=0;exitY=0.5;exitDx=0;exitDy=0;" edge="1" parent="1" source="Xjdg4aVOlzYSAY4IZTlS-30" target="Xjdg4aVOlzYSAY4IZTlS-33">
          <mxGeometry x="1" y="19" relative="1" as="geometry">
            <mxPoint x="942" y="353" as="sourcePoint" />
            <mxPoint x="-18" y="-13" as="offset" />
          </mxGeometry>
        </mxCell>
        <mxCell id="Xjdg4aVOlzYSAY4IZTlS-33" value="" style="ellipse;html=1;fontSize=11;align=center;fillColor=none;points=[];aspect=fixed;resizable=0;verticalAlign=bottom;labelPosition=center;verticalLabelPosition=top;flipH=1;" vertex="1" parent="1">
          <mxGeometry x="912" y="349" width="8" height="8" as="geometry" />
        </mxCell>
        <mxCell id="Xjdg4aVOlzYSAY4IZTlS-34" value="&lt;p style=&quot;margin:0px;margin-top:6px;text-align:center;&quot;&gt;&lt;b&gt;&quot;component&quot;&lt;/b&gt;&lt;/p&gt;&lt;p style=&quot;margin:0px;margin-top:6px;text-align:center;&quot;&gt;&lt;b&gt;SmartHomeServerProtected&lt;/b&gt;&lt;b style=&quot;background-color: initial;&quot;&gt;Layer&lt;/b&gt;&lt;/p&gt;&lt;hr&gt;&lt;p style=&quot;margin:0px;margin-left:8px;&quot;&gt;&lt;br&gt;&lt;/p&gt;" style="align=left;overflow=fill;html=1;dropTarget=0;whiteSpace=wrap;" vertex="1" parent="1">
          <mxGeometry x="1740" y="60" width="420" height="341" as="geometry" />
        </mxCell>
        <mxCell id="Xjdg4aVOlzYSAY4IZTlS-35" value="" style="shape=component;jettyWidth=8;jettyHeight=4;" vertex="1" parent="Xjdg4aVOlzYSAY4IZTlS-34">
          <mxGeometry x="1" width="20" height="20" relative="1" as="geometry">
            <mxPoint x="-24" y="4" as="offset" />
          </mxGeometry>
        </mxCell>
        <mxCell id="Xjdg4aVOlzYSAY4IZTlS-37" value="" style="endArrow=none;html=1;rounded=0;align=center;verticalAlign=top;endFill=0;labelBackgroundColor=none;endSize=2;exitX=0;exitY=0.5;exitDx=0;exitDy=0;" edge="1" source="Xjdg4aVOlzYSAY4IZTlS-39" target="Xjdg4aVOlzYSAY4IZTlS-38" parent="1">
          <mxGeometry relative="1" as="geometry">
            <mxPoint x="1760" y="259.5189165654976" as="sourcePoint" />
            <mxPoint x="1700" y="260" as="targetPoint" />
          </mxGeometry>
        </mxCell>
        <mxCell id="Xjdg4aVOlzYSAY4IZTlS-38" value="" style="ellipse;html=1;fontSize=11;align=center;fillColor=none;points=[];aspect=fixed;resizable=0;verticalAlign=bottom;labelPosition=center;verticalLabelPosition=top;flipH=1;" vertex="1" parent="1">
          <mxGeometry x="1654" y="246" width="8" height="8" as="geometry" />
        </mxCell>
        <mxCell id="Xjdg4aVOlzYSAY4IZTlS-74" style="edgeStyle=orthogonalEdgeStyle;rounded=0;orthogonalLoop=1;jettySize=auto;html=1;entryX=0;entryY=0.5;entryDx=0;entryDy=0;endArrow=none;endFill=0;" edge="1" parent="1" source="Xjdg4aVOlzYSAY4IZTlS-39" target="Xjdg4aVOlzYSAY4IZTlS-73">
          <mxGeometry relative="1" as="geometry" />
        </mxCell>
        <mxCell id="Xjdg4aVOlzYSAY4IZTlS-39" value="" style="html=1;rounded=0;" vertex="1" parent="1">
          <mxGeometry x="1730" y="239" width="20" height="20" as="geometry" />
        </mxCell>
        <mxCell id="Xjdg4aVOlzYSAY4IZTlS-67" style="edgeStyle=orthogonalEdgeStyle;rounded=0;orthogonalLoop=1;jettySize=auto;html=1;entryX=1;entryY=0.5;entryDx=0;entryDy=0;endArrow=none;endFill=0;" edge="1" parent="1" source="Xjdg4aVOlzYSAY4IZTlS-43" target="Xjdg4aVOlzYSAY4IZTlS-66">
          <mxGeometry relative="1" as="geometry" />
        </mxCell>
        <mxCell id="Xjdg4aVOlzYSAY4IZTlS-43" value="" style="html=1;rounded=0;" vertex="1" parent="1">
          <mxGeometry x="1582" y="140" width="20" height="20" as="geometry" />
        </mxCell>
        <mxCell id="Xjdg4aVOlzYSAY4IZTlS-44" value="IBaseUI_API" style="endArrow=none;html=1;rounded=0;align=center;verticalAlign=top;endFill=0;labelBackgroundColor=none;endSize=2;" edge="1" parent="1" source="Xjdg4aVOlzYSAY4IZTlS-43" target="Xjdg4aVOlzYSAY4IZTlS-45">
          <mxGeometry x="0.7143" y="-10" relative="1" as="geometry">
            <mxPoint as="offset" />
          </mxGeometry>
        </mxCell>
        <mxCell id="Xjdg4aVOlzYSAY4IZTlS-45" value="" style="shape=requiredInterface;html=1;fontSize=11;align=center;fillColor=none;points=[];aspect=fixed;resizable=0;verticalAlign=bottom;labelPosition=center;verticalLabelPosition=top;flipH=1;" vertex="1" parent="1">
          <mxGeometry x="1652" y="144" width="5" height="10" as="geometry" />
        </mxCell>
        <mxCell id="Xjdg4aVOlzYSAY4IZTlS-47" value="«component»&lt;br&gt;&lt;b&gt;UIController&lt;/b&gt;" style="html=1;dropTarget=0;whiteSpace=wrap;" vertex="1" parent="1">
          <mxGeometry x="1870" y="125" width="150" height="60" as="geometry" />
        </mxCell>
        <mxCell id="Xjdg4aVOlzYSAY4IZTlS-48" value="" style="shape=module;jettyWidth=8;jettyHeight=4;" vertex="1" parent="Xjdg4aVOlzYSAY4IZTlS-47">
          <mxGeometry x="1" width="20" height="20" relative="1" as="geometry">
            <mxPoint x="-27" y="7" as="offset" />
          </mxGeometry>
        </mxCell>
        <mxCell id="Xjdg4aVOlzYSAY4IZTlS-62" value="" style="endArrow=none;html=1;rounded=0;align=center;verticalAlign=top;endFill=0;labelBackgroundColor=none;endSize=2;exitX=0;exitY=0.5;exitDx=0;exitDy=0;" edge="1" source="Xjdg4aVOlzYSAY4IZTlS-64" target="Xjdg4aVOlzYSAY4IZTlS-63" parent="1">
          <mxGeometry relative="1" as="geometry">
            <mxPoint x="1750" y="145.02748073856782" as="sourcePoint" />
            <mxPoint x="1690" y="145" as="targetPoint" />
          </mxGeometry>
        </mxCell>
        <mxCell id="Xjdg4aVOlzYSAY4IZTlS-63" value="" style="ellipse;html=1;fontSize=11;align=center;fillColor=none;points=[];aspect=fixed;resizable=0;verticalAlign=bottom;labelPosition=center;verticalLabelPosition=top;flipH=1;" vertex="1" parent="1">
          <mxGeometry x="1654" y="145" width="8" height="8" as="geometry" />
        </mxCell>
        <mxCell id="Xjdg4aVOlzYSAY4IZTlS-69" style="edgeStyle=orthogonalEdgeStyle;rounded=0;orthogonalLoop=1;jettySize=auto;html=1;entryX=0;entryY=0.5;entryDx=0;entryDy=0;endArrow=none;endFill=0;" edge="1" parent="1" source="Xjdg4aVOlzYSAY4IZTlS-64" target="Xjdg4aVOlzYSAY4IZTlS-68">
          <mxGeometry relative="1" as="geometry" />
        </mxCell>
        <mxCell id="Xjdg4aVOlzYSAY4IZTlS-64" value="" style="html=1;rounded=0;" vertex="1" parent="1">
          <mxGeometry x="1730" y="140" width="20" height="20" as="geometry" />
        </mxCell>
        <mxCell id="Xjdg4aVOlzYSAY4IZTlS-66" value="" style="html=1;rounded=0;" vertex="1" parent="1">
          <mxGeometry x="1352" y="140" width="20" height="20" as="geometry" />
        </mxCell>
        <mxCell id="Xjdg4aVOlzYSAY4IZTlS-68" value="" style="html=1;rounded=0;" vertex="1" parent="1">
          <mxGeometry x="1860" y="140" width="20" height="20" as="geometry" />
        </mxCell>
        <mxCell id="Xjdg4aVOlzYSAY4IZTlS-72" style="edgeStyle=orthogonalEdgeStyle;rounded=0;orthogonalLoop=1;jettySize=auto;html=1;endArrow=open;endFill=0;dashed=1;dashPattern=12 12;" edge="1" parent="1" source="Xjdg4aVOlzYSAY4IZTlS-70" target="Xjdg4aVOlzYSAY4IZTlS-47">
          <mxGeometry relative="1" as="geometry" />
        </mxCell>
        <mxCell id="Xjdg4aVOlzYSAY4IZTlS-77" style="edgeStyle=orthogonalEdgeStyle;rounded=0;orthogonalLoop=1;jettySize=auto;html=1;endArrow=open;endFill=0;dashed=1;dashPattern=12 12;" edge="1" parent="1" source="Xjdg4aVOlzYSAY4IZTlS-70" target="Xjdg4aVOlzYSAY4IZTlS-75">
          <mxGeometry relative="1" as="geometry" />
        </mxCell>
        <mxCell id="Xjdg4aVOlzYSAY4IZTlS-70" value="«component»&lt;br&gt;&lt;b&gt;Supervisor&lt;/b&gt;" style="html=1;dropTarget=0;whiteSpace=wrap;" vertex="1" parent="1">
          <mxGeometry x="1870" y="220" width="150" height="60" as="geometry" />
        </mxCell>
        <mxCell id="Xjdg4aVOlzYSAY4IZTlS-71" value="" style="shape=module;jettyWidth=8;jettyHeight=4;" vertex="1" parent="Xjdg4aVOlzYSAY4IZTlS-70">
          <mxGeometry x="1" width="20" height="20" relative="1" as="geometry">
            <mxPoint x="-27" y="7" as="offset" />
          </mxGeometry>
        </mxCell>
        <mxCell id="Xjdg4aVOlzYSAY4IZTlS-73" value="" style="html=1;rounded=0;" vertex="1" parent="1">
          <mxGeometry x="1860" y="239" width="20" height="20" as="geometry" />
        </mxCell>
        <mxCell id="Xjdg4aVOlzYSAY4IZTlS-75" value="«component»&lt;br&gt;&lt;b&gt;ServerOS&lt;/b&gt;" style="html=1;dropTarget=0;whiteSpace=wrap;" vertex="1" parent="1">
          <mxGeometry x="1870" y="325" width="150" height="60" as="geometry" />
        </mxCell>
        <mxCell id="Xjdg4aVOlzYSAY4IZTlS-76" value="" style="shape=module;jettyWidth=8;jettyHeight=4;" vertex="1" parent="Xjdg4aVOlzYSAY4IZTlS-75">
          <mxGeometry x="1" width="20" height="20" relative="1" as="geometry">
            <mxPoint x="-27" y="7" as="offset" />
          </mxGeometry>
        </mxCell>
      </root>
    </mxGraphModel>
  </diagram>
</mxfile>
